/* XPM */
static char * close_pressed_xpm[] = {
"28 28 11 1",
" 	c None",
".	c #1F2326",
"+	c #2D3338",
"@	c #873913",
"#	c #442A1A",
"$	c #412919",
"%	c #B24414",
"&	c #8A3814",
"*	c #B8460E",
"=	c #462918",
"-	c #3C271A",
"............................",
"............................",
"............................",
"..+++++++++++++++++++++++++.",
".+++++++++++++++++++++++++++",
".+++++++++++++++++++++++++++",
".+++++++++++++++++++++++++++",
".+++++++++++++++++++++++++++",
".+++++++++++++++++++++++++++",
".+++++++++++++++++++++++++++",
".+++++++++@#+++++@$+++++++++",
".+++++++++#%#+++&@++++++++++",
".++++++++++#%#+&@+++++++++++",
".+++++++++++#%*@++++++++++++",
".++++++++++++*%=++++++++++++",
".+++++++++++&@=%#+++++++++++",
".++++++++++&@++#%#++++++++++",
".+++++++++@@++++#%-+++++++++",
".+++++++++$++++++-++++++++++",
".+++++++++++++++++++++++++++",
".+++++++++++++++++++++++++++",
".+++++++++++++++++++++++++++",
".+++++++++++++++++++++++++++",
".+++++++++++++++++++++++++++",
".+++++++++++++++++++++++++++",
"..+++++++++++++++++++++++++.",
"............................",
"............................"};
