/* XPM */
static char * close_prelight_xpm[] = {
"28 28 10 1",
" 	c None",
".	c #FFFFFF",
"+	c #EBEBEE",
"@	c #C64406",
"#	c #DE4E0E",
"$	c #FF5006",
"%	c #CB4406",
"&	c #FF5306",
"*	c #DC4A09",
"=	c #D94D07",
"............................",
"............................",
"............................",
"..+++++++++++++++++++++++++.",
".+++++++++++++++++++++++++++",
".+++++++++++++++++++++++++++",
".+++++++++++++++++++++++++++",
".+++++++++++++++++++++++++++",
".+++++++++++++++++++++++++++",
".+++++++++++++++++++++++++++",
".+++++++++@#+++++@#+++++++++",
".+++++++++#$#+++%&*+++++++++",
".++++++++++#$#+%&*++++++++++",
".+++++++++++#$=&*+++++++++++",
".++++++++++++=&#++++++++++++",
".+++++++++++%&#$#+++++++++++",
".++++++++++%&*+#$#++++++++++",
".+++++++++@&*+++#$#+++++++++",
".+++++++++#*+++++#*+++++++++",
".+++++++++++++++++++++++++++",
".+++++++++++++++++++++++++++",
".+++++++++++++++++++++++++++",
".+++++++++++++++++++++++++++",
".+++++++++++++++++++++++++++",
".+++++++++++++++++++++++++++",
"..+++++++++++++++++++++++++.",
"............................",
"............................"};
