/* XPM */
static char * close_pressed_xpm[] = {
"28 28 6 1",
" 	c None",
".	c #1F2326",
"+	c #2D3338",
"@	c #FE8400",
"#	c #FF9524",
"$	c #D08636",
"............................",
"............................",
"............................",
"..+++++++++++++++++++++++++.",
".+++++++++++++++++++++++++++",
".+++++++++++++++++++++++++++",
".+++++++++++++++++++++++++++",
".+++++++++++++++++++++++++++",
".+++++++++++++++++++++++++++",
".+++++++++++++++++++++++++++",
".+++++++++@++++++#@+++++++++",
".+++++++++#@++++#@++++++++++",
".++++++++++#@++#@+++++++++++",
".+++++++++++#@$@++++++++++++",
".++++++++++++$@$++++++++++++",
".+++++++++++#@$@#+++++++++++",
".++++++++++#@+++@#++++++++++",
".+++++++++#@+++++@#+++++++++",
".+++++++++@+++++++@+++++++++",
".+++++++++++++++++++++++++++",
".+++++++++++++++++++++++++++",
".+++++++++++++++++++++++++++",
".+++++++++++++++++++++++++++",
".+++++++++++++++++++++++++++",
".+++++++++++++++++++++++++++",
"..+++++++++++++++++++++++++.",
"............................",
"............................"};
