/* XPM */
static char * close_prelight_xpm[] = {
"28 28 7 1",
" 	c None",
".	c #1A1A1A",
"+	c #1F2326",
"@	c #EB9C49",
"#	c #EC9536",
"$	c #F08412",
"%	c #F27E00",
"............................",
"............................",
"............................",
"..+++++++++++++++++++++++++.",
".+++++++++++++++++++++++++++",
".+++++++++++++++++++++++++++",
".+++++++++++++++++++++++++++",
".+++++++++++++++++++++++++++",
".+++++++++++++++++++++++++++",
".+++++++++++++++++++++++++++",
".+++++++++@#+++++#@+++++++++",
".+++++++++#$@+++@%#+++++++++",
".++++++++++@$@+@%@++++++++++",
".+++++++++++@$#%@+++++++++++",
".++++++++++++#%#++++++++++++",
".+++++++++++#%#$@+++++++++++",
".++++++++++@%#+@$@++++++++++",
".+++++++++#%@+++@$#+++++++++",
".+++++++++@#+++++#@+++++++++",
".+++++++++++++++++++++++++++",
".+++++++++++++++++++++++++++",
".+++++++++++++++++++++++++++",
".+++++++++++++++++++++++++++",
".+++++++++++++++++++++++++++",
".+++++++++++++++++++++++++++",
"..+++++++++++++++++++++++++.",
"............................",
"............................"};
