/* XPM */
static char * close_inactive_xpm[] = {
"28 28 6 1",
" 	c None",
".	c #1A1A1A",
"+	c #86868A",
"@	c #767679",
"#	c #67676A",
"$	c #898A8E",
"............................",
"............................",
"............................",
"............................",
"............................",
"............................",
"............................",
"............................",
"............................",
"............................",
"..........+@.....@+.........",
"..........@#$...$#@.........",
"...........$#$.$#$..........",
"............$#@#$...........",
".............@#@............",
"............$#@#$...........",
"...........$#$.$#$..........",
"..........@#$...$#@.........",
"..........+@.....@+.........",
"............................",
"............................",
"............................",
"............................",
"............................",
"............................",
"............................",
"............................",
"............................"};
