/* XPM */
static char * close_inactive_xpm[] = {
"28 28 14 1",
" 	c None",
".	c #131517",
"+	c #363636",
"@	c #1B1B1B",
"#	c #191C1D",
"$	c #1D2021",
"%	c #373737",
"&	c #191919",
"*	c #1C1C1C",
"=	c #474747",
"-	c #1C1F20",
";	c #3C3C3C",
">	c #4B4B4B",
",	c #1E2021",
"............................",
"............................",
"............................",
"............................",
"............................",
"............................",
"............................",
"............................",
"............................",
"............................",
"..........+@#...$%&.........",
"..........*=@#.$%%-.........",
"...........@=@$%%-..........",
"............*=;%-...........",
"............$;>*............",
"...........$%%*=@...........",
"..........$%%-.@=@..........",
"..........%%-...*=&.........",
"..........&-.....&,.........",
"............................",
"............................",
"............................",
"............................",
"............................",
"............................",
"............................",
"............................",
"............................"};
