/* XPM */
static char * close_active_xpm[] = {
"28 28 5 1",
" 	c None",
".	c #1A1A1A",
"+	c #D1D2DB",
"@	c #C4C5CD",
"#	c #BBBCC1",
"............................",
"............................",
"............................",
"............................",
"............................",
"............................",
"............................",
"............................",
"............................",
"............................",
"..........+@.....@+.........",
"..........@#+...+#@.........",
"...........+#+.+#+..........",
"............+#@#+...........",
".............@#@............",
"............+#@#+...........",
"...........+#+.+#+..........",
"..........@#+...+#@.........",
"..........+@.....@+.........",
"............................",
"............................",
"............................",
"............................",
"............................",
"............................",
"............................",
"............................",
"............................"};
