/* XPM */
static char * close_active_xpm[] = {
"28 28 16 1",
" 	c None",
".	c #1F2326",
"+	c #757777",
"@	c #3B3E3F",
"#	c #1D2021",
"$	c #777979",
"%	c #37393A",
"&	c #3C3F40",
"*	c #989A9A",
"=	c #7A7B7C",
"-	c #1C1F20",
";	c #828384",
">	c #A3A4A5",
",	c #3E4041",
"'	c #353838",
")	c #1E2021",
"............................",
"............................",
"............................",
"............................",
"............................",
"............................",
"............................",
"............................",
"............................",
"............................",
"..........+@....#$%.........",
"..........&*@..#=$-.........",
"...........@*@#=$-..........",
"............&*;$-...........",
"............#;>,............",
"...........#=$,*@...........",
"..........#=$-.@*@..........",
"..........$$-...&*'.........",
"..........%-.....').........",
"............................",
"............................",
"............................",
"............................",
"............................",
"............................",
"............................",
"............................",
"............................"};
