/* XPM */
static char * close_pressed_xpm[] = {
"28 28 8 1",
" 	c None",
".	c #1A1A1A",
"+	c #1D2022",
"@	c #D79145",
"#	c #D08636",
"$	c #D06C00",
"%	c #EB9C49",
"&	c #F27E00",
"............................",
"............................",
"............................",
"..+++++++++++++++++++++++++.",
".+++++++++++++++++++++++++++",
".+++++++++++++++++++++++++++",
".+++++++++++++++++++++++++++",
".+++++++++++++++++++++++++++",
".+++++++++++++++++++++++++++",
".+++++++++++++++++++++++++++",
".+++++++++@#+++++#@+++++++++",
".+++++++++#$@+++@$#+++++++++",
".++++++++++@$@+@$@++++++++++",
".+++++++++++@$#$%+++++++++++",
".++++++++++++#&#++++++++++++",
".+++++++++++@$#$@+++++++++++",
".++++++++++@$@+@$@++++++++++",
".+++++++++#$@+++@$#+++++++++",
".+++++++++@#+++++#@+++++++++",
".+++++++++++++++++++++++++++",
".+++++++++++++++++++++++++++",
".+++++++++++++++++++++++++++",
".+++++++++++++++++++++++++++",
".+++++++++++++++++++++++++++",
".+++++++++++++++++++++++++++",
"..+++++++++++++++++++++++++.",
"............................",
"............................"};
