/* XPM */
static char * close_inactive_xpm[] = {
"28 28 4 1",
" 	c None",
".	c #1F2326",
"+	c #67676A",
"@	c #767679",
"............................",
"............................",
"............................",
"............................",
"............................",
"............................",
"............................",
"............................",
"............................",
"............................",
"..........+......@+.........",
"..........@+....@+..........",
"...........@+..@+...........",
"............@+@+............",
".............@+@............",
"............@+@+@...........",
"...........@+...+@..........",
"..........@+.....+@.........",
"..........+.......+.........",
"............................",
"............................",
"............................",
"............................",
"............................",
"............................",
"............................",
"............................",
"............................"};
