/* XPM */
static char * maximize_pressed_xpm[] = {
"28 28 5 1",
" 	c None",
".	c #1A1A1A",
"+	c #1D2022",
"@	c #2CA7F8",
"#	c #2A2F33",
"............................",
"............................",
"............................",
"..+++++++++++++++++++++++++.",
".+++++++++++++++++++++++++++",
".+++++++++++++++++++++++++++",
".+++++++++++++++++++++++++++",
".+++++++++++++++++++++++++++",
".+++++++++++++++++++++++++++",
".+++++++++++++++++++++++++++",
".+++++++++++++++++++++++++++",
".+++++++++@@@@@@@@@+++++++++",
".+++++++++@#######@#++++++++",
".+++++++++@#++++++@#++++++++",
".+++++++++@#++++++@#++++++++",
".+++++++++@#++++++@#++++++++",
".+++++++++@#++++++@#++++++++",
".+++++++++@@@@@@@@@#++++++++",
".++++++++++#########++++++++",
".+++++++++++++++++++++++++++",
".+++++++++++++++++++++++++++",
".+++++++++++++++++++++++++++",
".+++++++++++++++++++++++++++",
".+++++++++++++++++++++++++++",
".+++++++++++++++++++++++++++",
"..+++++++++++++++++++++++++.",
"............................",
"............................"};
