/* XPM */
static char * maximize_pressed_xpm[] = {
"28 28 5 1",
" 	c None",
".	c #1F2326",
"+	c #2D3338",
"@	c #2CA7F8",
"#	c #2A2F33",
"............................",
"............................",
"............................",
"............................",
"............................",
"............................",
"............................",
"......+++++++++++++++++.....",
".....+++++++++++++++++++....",
".....+++++++++++++++++++....",
".....+++++++++++++++++++....",
".....+++++@@@@@@@@@+++++....",
".....+++++@#######@#++++....",
".....+++++@#++++++@#++++....",
".....+++++@#++++++@#++++....",
".....+++++@#++++++@#++++....",
".....+++++@#++++++@#++++....",
".....+++++@@@@@@@@@#++++....",
".....++++++#########++++....",
".....+++++++++++++++++++....",
".....+++++++++++++++++++....",
"......+++++++++++++++++.....",
"............................",
"............................",
"............................",
"............................",
"............................",
"............................"};
