/* XPM */
static char * maximize_inactive_xpm[] = {
"28 28 3 1",
" 	c None",
".	c #1F2326",
"+	c #767679",
"............................",
"............................",
"............................",
"............................",
"............................",
"............................",
"............................",
"............................",
"............................",
"............................",
"............................",
"..........+++++++++.........",
"..........+.......+.........",
"..........+.......+.........",
"..........+.......+.........",
"..........+.......+.........",
"..........+.......+.........",
"..........+++++++++.........",
"............................",
"............................",
"............................",
"............................",
"............................",
"............................",
"............................",
"............................",
"............................",
"............................"};
