/* XPM */
static char * shade_inactive_xpm[] = {
"18 28 2 1",
" 	c None",
".	c #B9BFCE",
"                  ",
"                  ",
"                  ",
"                  ",
"                  ",
"                  ",
"                  ",
"                  ",
"                  ",
"                  ",
"                  ",
"        ..        ",
"       ....       ",
"      ......      ",
"     ........     ",
"                  ",
"     ........     ",
"     ........     ",
"                  ",
"                  ",
"                  ",
"                  ",
"                  ",
"                  ",
"                  ",
"                  ",
"                  ",
"                  "};
