/* XPM */
static char * title_2_inactive_xpm[] = {
"5 28 3 1",
" 	c None",
".	c #1A1A1A",
"+	c #1F2326",
".....",
"+++++",
"+++++",
"+++++",
"+++++",
"+++++",
"+++++",
"+++++",
"+++++",
"+++++",
"+++++",
"+++++",
"+++++",
"+++++",
"+++++",
"+++++",
"+++++",
"+++++",
"+++++",
"+++++",
"+++++",
"+++++",
"+++++",
"+++++",
"+++++",
"+++++",
"+++++",
"+++++"};
