/* XPM */
static char * close_pressed_xpm[] = {
"28 28 8 1",
" 	c None",
".	c #FFFFFF",
"+	c #ABADAF",
"@	c #873913",
"#	c #9B451F",
"$	c #B24414",
"%	c #8A3814",
"&	c #B8460E",
"............................",
"............................",
"............................",
"..+++++++++++++++++++++++++.",
".+++++++++++++++++++++++++++",
".+++++++++++++++++++++++++++",
".+++++++++++++++++++++++++++",
".+++++++++++++++++++++++++++",
".+++++++++++++++++++++++++++",
".+++++++++++++++++++++++++++",
".+++++++++@#+++++@#+++++++++",
".+++++++++#$#+++%@#+++++++++",
".++++++++++#$#+%@#++++++++++",
".+++++++++++#$&@#+++++++++++",
".++++++++++++&$#++++++++++++",
".+++++++++++%@#$#+++++++++++",
".++++++++++%@#+#$#++++++++++",
".+++++++++@@#+++#$#+++++++++",
".+++++++++##+++++#@+++++++++",
".+++++++++++++++++++++++++++",
".+++++++++++++++++++++++++++",
".+++++++++++++++++++++++++++",
".+++++++++++++++++++++++++++",
".+++++++++++++++++++++++++++",
".+++++++++++++++++++++++++++",
"..+++++++++++++++++++++++++.",
"............................",
"............................"};
