/* XPM */
static char * close_active_xpm[] = {
"28 28 21 1",
" 	c None",
".	c #FFFFFF",
"+	c #B7B7B7",
"@	c #575656",
"#	c #E1E1E1",
"$	c #B5B5B5",
"%	c #E4E4E4",
"&	c #858585",
"*	c #B2B2B2",
"=	c #B4B4B4",
"-	c #F8F8F8",
";	c #DFDFDF",
">	c #474747",
",	c #ADADAD",
"'	c #B3B3B3",
")	c #9B9B9B",
"!	c #838383",
"~	c #E6E6E6",
"{	c #E5E5E5",
"]	c #E3E3E3",
"^	c #F7F7F7",
"............................",
"............................",
"............................",
"............................",
"............................",
"............................",
"............................",
"............................",
"............................",
"............................",
"..........+@#....$@%........",
"..........#&@#..*@=-........",
"...........#&@;*@=..........",
"............#&>@$...........",
".............,@>;...........",
"............'@)!@#..........",
"...........*@=-#&@#.........",
"..........+@=-..#&@~........",
"..........{]-....~]^........",
"............................",
"............................",
"............................",
"............................",
"............................",
"............................",
"............................",
"............................",
"............................"};
