/* XPM */
static char * close_active_xpm[] = {
"28 28 31 1",
" 	c None",
".	c #FFFFFF",
"+	c #B7B7B7",
"@	c #9E9E9E",
"#	c #E1E1E1",
"$	c #FAFAFA",
"%	c #F8F8F8",
"&	c #B5B5B5",
"*	c #A1A1A1",
"=	c #E4E4E4",
"-	c #858585",
";	c #B2B2B2",
">	c #707070",
",	c #B4B4B4",
"'	c #848484",
")	c #DFDFDF",
"!	c #F9F9F9",
"~	c #525252",
"{	c #6A6A6A",
"]	c #ADADAD",
"^	c #4A4A4A",
"/	c #7A7A7A",
"(	c #B3B3B3",
"_	c #9B9B9B",
":	c #838383",
"<	c #737373",
"[	c #8A8A8A",
"}	c #E6E6E6",
"|	c #E5E5E5",
"1	c #E3E3E3",
"2	c #F7F7F7",
"............................",
"............................",
"............................",
"............................",
"............................",
"............................",
"............................",
"............................",
"............................",
"............................",
"..........+@#$$$%&*=........",
"..........#--#$%;>,%........",
"..........$#-');>,!$........",
"..........$$#-~{&!$$........",
"..........$$%]^/)$$$........",
"..........$%(>_:-#$$........",
"..........%;>,%#--#$........",
"..........+<,%$$#-[}........",
"..........|1%$$$$}12........",
"............................",
"............................",
"............................",
"............................",
"............................",
"............................",
"............................",
"............................",
"............................"};
