/* XPM */
static char * close_prelight_xpm[] = {
"28 28 18 1",
" 	c None",
".	c #E2E3E7",
"+	c #DADBE0",
"@	c #D9DAE0",
"#	c #EA9D4B",
"$	c #DFC4A8",
"%	c #D9D7DA",
"&	c #EB9C49",
"*	c #DFC6AF",
"=	c #DFC3A7",
"-	c #F08412",
";	c #EB9A43",
">	c #D9D8DC",
",	c #EC9536",
"'	c #F27E00",
")	c #E0C1A3",
"!	c #DFC9B3",
"~	c #DAD6D8",
"                            ",
"                            ",
"                            ",
" .+@@@@@@@@@@@@@@@@@@@@@@@+.",
" +@@@@@@@@@@@@@@@@@@@@@@@@@+",
" @@@@@@@@@@@@@@@@@@@@@@@@@@@",
" @@@@@@@@@@@@@@@@@@@@@@@@@@@",
" @@@@@@@@@@@@@@@@@@@@@@@@@@@",
" @@@@@@@@@@@@@@@@@@@@@@@@@@@",
" @@@@@@@@@@@@@@@@@@@@@@@@@@@",
" @@@@@@@@@#$@@@@%&*@@@@@@@@@",
" @@@@@@@@@=-$@@%;&>@@@@@@@@@",
" @@@@@@@@@@$-$%;&>@@@@@@@@@@",
" @@@@@@@@@@@=-,&>@@@@@@@@@@@",
" @@@@@@@@@@@%,')@@@@@@@@@@@@",
" @@@@@@@@@@%;&)-$@@@@@@@@@@@",
" @@@@@@@@@%;&>@$-$@@@@@@@@@@",
" @@@@@@@@@&&>@@@=-!@@@@@@@@@",
" @@@@@@@@@*>@@@@@!~@@@@@@@@@",
" @@@@@@@@@@@@@@@@@@@@@@@@@@@",
" @@@@@@@@@@@@@@@@@@@@@@@@@@@",
" @@@@@@@@@@@@@@@@@@@@@@@@@@@",
" @@@@@@@@@@@@@@@@@@@@@@@@@@@",
" @@@@@@@@@@@@@@@@@@@@@@@@@@@",
" +@@@@@@@@@@@@@@@@@@@@@@@@@+",
" .+@@@@@@@@@@@@@@@@@@@@@@@+.",
"                            ",
"                            "};
