/* XPM */
static char * close_pressed_xpm[] = {
"28 28 14 1",
" 	c None",
".	c #E2E3E7",
"+	c #BBBCC1",
"@	c #EA9D4B",
"#	c #DFC4A8",
"$	c #EB9C49",
"%	c #DFC6AF",
"&	c #DFC3A7",
"*	c #F08412",
"=	c #EB9A43",
"-	c #EC9536",
";	c #DC964D",
">	c #E0C1A3",
",	c #DFC9B3",
"                            ",
"                            ",
"                            ",
" .+++++++++++++++++++++++++.",
" +++++++++++++++++++++++++++",
" +++++++++++++++++++++++++++",
" +++++++++++++++++++++++++++",
" +++++++++++++++++++++++++++",
" +++++++++++++++++++++++++++",
" +++++++++++++++++++++++++++",
" +++++++++@#+++++$%+++++++++",
" +++++++++&*#+++=$++++++++++",
" ++++++++++#*#+=$+++++++++++",
" +++++++++++&*-$++++++++++++",
" ++++++++++++-;>++++++++++++",
" +++++++++++=$>*#+++++++++++",
" ++++++++++=$++#*#++++++++++",
" +++++++++$$++++&*,+++++++++",
" +++++++++%++++++,++++++++++",
" +++++++++++++++++++++++++++",
" +++++++++++++++++++++++++++",
" +++++++++++++++++++++++++++",
" +++++++++++++++++++++++++++",
" +++++++++++++++++++++++++++",
" +++++++++++++++++++++++++++",
" .+++++++++++++++++++++++++.",
"                            ",
"                            "};
