/* XPM */
static char * close_prelight_xpm[] = {
"28 28 12 1",
" 	c None",
".	c #FFFFFF",
"+	c #ABADAF",
"@	c #C64406",
"#	c #62361B",
"$	c #5C351B",
"%	c #FF5006",
"&	c #CB4406",
"*	c #D94D07",
"=	c #FF5306",
"-	c #653619",
";	c #55321C",
"............................",
"............................",
"............................",
"..+++++++++++++++++++++++++.",
".+++++++++++++++++++++++++++",
".+++++++++++++++++++++++++++",
".+++++++++++++++++++++++++++",
".+++++++++++++++++++++++++++",
".+++++++++++++++++++++++++++",
".+++++++++++++++++++++++++++",
".+++++++++@#+++++@$+++++++++",
".+++++++++#%#+++&@++++++++++",
".++++++++++#%#+&@+++++++++++",
".+++++++++++#%*@++++++++++++",
".++++++++++++*=-++++++++++++",
".+++++++++++&@-%#+++++++++++",
".++++++++++&@++#%#++++++++++",
".+++++++++@@++++#%;+++++++++",
".+++++++++$++++++;++++++++++",
".+++++++++++++++++++++++++++",
".+++++++++++++++++++++++++++",
".+++++++++++++++++++++++++++",
".+++++++++++++++++++++++++++",
".+++++++++++++++++++++++++++",
".+++++++++++++++++++++++++++",
"..+++++++++++++++++++++++++.",
"............................",
"............................"};
