/* XPM */
static char * close_active_xpm[] = {
"28 28 3 1",
" 	c None",
".	c #303030",
"+	c #313131",
"                            ",
"                            ",
"                            ",
"                            ",
"                            ",
"                            ",
"                            ",
"                            ",
"                            ",
"                            ",
"          .+    ++          ",
"          +++  +++          ",
"           ++++++           ",
"            ++++            ",
"            ++.+            ",
"           ++++++           ",
"          +++  +++          ",
"          ++    ++          ",
"                            ",
"                            ",
"                            ",
"                            ",
"                            ",
"                            ",
"                            ",
"                            ",
"                            ",
"                            "};
