/* XPM */
static char * maximize_prelight_xpm[] = {
"28 28 4 1",
" 	c None",
".	c #FFFFFF",
"+	c #EBEBEE",
"@	c #000000",
"............................",
"............................",
"............................",
"............................",
"............................",
"............................",
"......+++++++++++++++++.....",
".....+++++++++++++++++++....",
".....+++++++++++++++++++....",
".....+++++++++++++++++++....",
".....+++++++++++++++++++....",
".....+++++@@@@@@@@@+++++....",
".....+++++@+++++++@+++++....",
".....+++++@+++++++@+++++....",
".....+++++@+++++++@+++++....",
".....+++++@+++++++@+++++....",
".....+++++@+++++++@+++++....",
".....+++++@@@@@@@@@+++++....",
".....+++++++++++++++++++....",
".....+++++++++++++++++++....",
".....+++++++++++++++++++....",
".....+++++++++++++++++++....",
"......+++++++++++++++++.....",
"............................",
"............................",
"............................",
"............................",
"............................"};
