/* XPM */
static char * maximize_prelight_xpm[] = {
"28 28 4 1",
" 	c None",
".	c #FAFBFD",
"+	c #E7E8EB",
"@	c #303030",
"                            ",
"                            ",
"                            ",
" .+++++++++++++++++++++++++.",
" +++++++++++++++++++++++++++",
" +++++++++++++++++++++++++++",
" +++++++++++++++++++++++++++",
" +++++++++++++++++++++++++++",
" +++++++++++++++++++++++++++",
" +++++++++++++++++++++++++++",
" +++++++++++++++++++++++++++",
" +++++++++@@@@@@@@@+++++++++",
" +++++++++@+++++++@+++++++++",
" +++++++++@+++++++@+++++++++",
" +++++++++@+++++++@+++++++++",
" +++++++++@+++++++@+++++++++",
" +++++++++@+++++++@+++++++++",
" +++++++++@@@@@@@@@+++++++++",
" +++++++++++++++++++++++++++",
" +++++++++++++++++++++++++++",
" +++++++++++++++++++++++++++",
" +++++++++++++++++++++++++++",
" +++++++++++++++++++++++++++",
" +++++++++++++++++++++++++++",
" +++++++++++++++++++++++++++",
" .+++++++++++++++++++++++++.",
"                            ",
"                            "};
